<svg preserveAspectRatio="none" width="100%" height="100%" overflow="visible" style="display: block;" viewBox="0 0 104 97" fill="none" xmlns="http://www.w3.org/2000/svg">
<g id="Doodle / Pizza">
<path id="Vector" d="M10.9474 17.2444L93.0526 8.62222L32.8421 84.0667C18.6105 71.1333 10.9474 46.3444 10.9474 17.2444Z" fill="#FFE46B" stroke="#222222" stroke-width="2"/>
<path id="Vector_2" d="M10.9474 17.2444C37.2211 22.6333 63.4947 19.4 93.0526 8.62222" stroke="#222222" stroke-width="6"/>
<path id="Vector_3" d="M43.7895 44.1889C48.6263 44.1889 52.5474 40.3286 52.5474 35.5667C52.5474 30.8047 48.6263 26.9444 43.7895 26.9444C38.9526 26.9444 35.0316 30.8047 35.0316 35.5667C35.0316 40.3286 38.9526 44.1889 43.7895 44.1889Z" fill="#FF5A3C" stroke="#222222" stroke-width="1.5"/>
<path id="Vector_4" d="M62.4 65.7444C67.2369 65.7444 71.1579 61.8841 71.1579 57.1222C71.1579 52.3603 67.2369 48.5 62.4 48.5C57.5631 48.5 53.6421 52.3603 53.6421 57.1222C53.6421 61.8841 57.5631 65.7444 62.4 65.7444Z" fill="#FF5A3C" stroke="#222222" stroke-width="1.5"/>
</g>
</svg>
