<svg preserveAspectRatio="none" width="100%" height="100%" overflow="visible" style="display: block;" viewBox="0 0 66 75" fill="none" xmlns="http://www.w3.org/2000/svg">
<g id="Doodle / Moon">
<path id="Vector" d="M56.1 55.7143C52.4042 59.626 47.6732 62.4701 42.4265 63.9343C37.1798 65.3985 31.6204 65.4263 26.3586 64.0145C21.0968 62.6028 16.3361 59.8061 12.5993 55.9315C8.86243 52.057 6.29396 47.2544 5.17586 42.0511C4.05776 36.8479 4.43328 31.4451 6.26118 26.4361C8.08907 21.4271 11.2987 17.0055 15.5375 13.6569C19.7764 10.3083 24.8806 8.16207 30.2898 7.45395C35.6989 6.74584 41.2038 7.50319 46.2 9.64286C42.9458 10.1239 39.8266 11.2465 37.0331 12.942C34.2396 14.6375 31.8306 16.8702 29.9533 19.5036C28.0761 22.137 26.7701 25.1157 26.1152 28.2575C25.4603 31.3994 25.4703 34.6384 26.1446 37.7763C26.8189 40.9143 28.1433 43.8853 30.0368 46.5076C31.9303 49.1299 34.3531 51.3485 37.1571 53.0275C39.961 54.7066 43.0871 55.8109 46.3442 56.2728C49.6013 56.7348 52.9209 56.5447 56.1 55.7143Z" fill="#FFECA8" stroke="#222222" stroke-width="2"/>
<g id="Vector_2">
<path d="M47.3 33.2143V37.5ZM55 35.3571V39.6429ZM46.2 45C49.5 47.1429 52.8 47.1429 55 43.9286Z" fill="black"/>
<path d="M47.3 33.2143V37.5M55 35.3571V39.6429M46.2 45C49.5 47.1429 52.8 47.1429 55 43.9286" stroke="#222222" stroke-width="1.8" stroke-linecap="round"/>
</g>
</g>
</svg>
