<svg preserveAspectRatio="none" width="100%" height="100%" overflow="visible" style="display: block;" viewBox="0 0 163 153" fill="none" xmlns="http://www.w3.org/2000/svg">
<g id="Hero / Friendly Cloud">
<path id="Vector" d="M83.7027 11.8521C106.831 11.8521 122.25 26.9366 124.453 45.2535C144.277 46.331 156.392 60.338 154.189 78.6549C153.088 92.662 143.176 102.359 129.959 106.669C129.959 127.141 112.338 140.07 92.5135 138.993C82.6014 151.923 62.777 154.077 50.6622 143.303C30.8378 145.458 16.5203 132.528 15.4189 115.289C1.10135 106.669 -1.10135 88.3521 9.91216 75.4225C3.30405 57.1056 15.4189 39.8662 34.1419 35.5563C39.6486 19.3944 58.3716 9.69718 83.7027 11.8521Z" fill="#FFECA8" stroke="#222222" stroke-width="2"/>
<path id="Vector_2" d="M66.0811 84.0423C72.7719 84.0423 78.1959 76.3239 78.1959 66.8028C78.1959 57.2817 72.7719 49.5634 66.0811 49.5634C59.3902 49.5634 53.9662 57.2817 53.9662 66.8028C53.9662 76.3239 59.3902 84.0423 66.0811 84.0423Z" fill="white" stroke="#111111" stroke-width="2"/>
<path id="Vector_3" d="M99.1216 81.8873C105.812 81.8873 111.236 74.169 111.236 64.6479C111.236 55.1268 105.812 47.4085 99.1216 47.4085C92.4308 47.4085 87.0068 55.1268 87.0068 64.6479C87.0068 74.169 92.4308 81.8873 99.1216 81.8873Z" fill="white" stroke="#111111" stroke-width="2"/>
<path id="Vector_4" d="M70.4865 77.5775C74.7443 77.5775 78.1959 74.2007 78.1959 70.0352C78.1959 65.8697 74.7443 62.493 70.4865 62.493C66.2287 62.493 62.777 65.8697 62.777 70.0352C62.777 74.2007 66.2287 77.5775 70.4865 77.5775Z" fill="#111111"/>
<path id="Vector_5" d="M103.527 75.4225C107.785 75.4225 111.236 72.0458 111.236 67.8803C111.236 63.7148 107.785 60.338 103.527 60.338C99.2692 60.338 95.8176 63.7148 95.8176 67.8803C95.8176 72.0458 99.2692 75.4225 103.527 75.4225Z" fill="#111111"/>
<path id="Vector_6" d="M75.9932 92.662C83.7027 101.282 92.5135 101.282 100.223 91.5845" stroke="#111111" stroke-width="2" stroke-linecap="round"/>
</g>
</svg>
