<svg preserveAspectRatio="none" width="100%" height="100%" overflow="visible" style="display: block;" viewBox="0 0 22 22" fill="none" xmlns="http://www.w3.org/2000/svg">
<g id="Icon">
<path id="Vector" d="M4.58333 12.8333C5.59586 12.8333 6.41667 12.0125 6.41667 11C6.41667 9.98748 5.59586 9.16667 4.58333 9.16667C3.57081 9.16667 2.75 9.98748 2.75 11C2.75 12.0125 3.57081 12.8333 4.58333 12.8333Z" fill="white"/>
<path id="Vector_2" d="M11 12.8333C12.0125 12.8333 12.8333 12.0125 12.8333 11C12.8333 9.98748 12.0125 9.16667 11 9.16667C9.98748 9.16667 9.16667 9.98748 9.16667 11C9.16667 12.0125 9.98748 12.8333 11 12.8333Z" fill="white"/>
<path id="Vector_3" d="M17.4167 12.8333C18.4292 12.8333 19.25 12.0125 19.25 11C19.25 9.98748 18.4292 9.16667 17.4167 9.16667C16.4041 9.16667 15.5833 9.98748 15.5833 11C15.5833 12.0125 16.4041 12.8333 17.4167 12.8333Z" fill="white"/>
</g>
</svg>
